<svg xmlns="http://www.w3.org/2000/svg" width="256" height="256"><path fill-opacity=".016" d="M0 128.004v128.004l128.25-.254 128.25-.254.254-127.75L257.008 0H0v128.004m.485.496c0 70.4.119 99.053.265 63.672.146-35.38.146-92.98 0-128C.604 29.153.485 58.1.485 128.5" fill="#ac4745" fill-rule="evenodd"/><path fill-opacity=".159" d="M111.5 14.617c-40.597 6.119-73.654 32.663-87.934 70.61-4.967 13.198-6.05 20.041-6.058 38.273-.01 21.736 2.412 32.451 11.304 50 14.967 29.539 43.268 51.119 75.898 57.876 8.964 1.856 34.616 1.856 43.58 0 20.272-4.198 41.672-15.669 56.045-30.041 13.289-13.289 26.557-37.166 29.178-52.509.312-1.829.947-4.728 1.41-6.441 1.389-5.142 1.014-33.163-.545-40.675-8.597-41.435-39.773-73.943-81.378-84.856-7.364-1.931-34-3.367-41.5-2.237m-9.093 114.896c-.764 3.046 1.038 5.511 3.965 5.424 2.021-.061 2.009-.111-.234-1.01-1.916-.767-2.279-1.511-1.923-3.936.531-3.622-.922-4.006-1.808-.478m22.783.785c-3.303 3.516-3.76 7.708-1.196 10.968 1.183 1.504 3.039 2.734 4.124 2.734 2.227 0 6.898-4.23 6.852-6.205-.019-.781-.435-.601-1.05.455-1.412 2.425-6.553 2.305-7.885-.184-1.515-2.832-1.265-6.154.62-8.237 2.415-2.669 1.082-2.242-1.465.469M130 132c0 .55.45 1 1 1s1-.45 1-1-.45-1-1-1-1 .45-1 1m14.564 39.707c-.542 1.425-.428 1.54.56.56.684-.679.991-1.486.683-1.793-.308-.308-.867.247-1.243 1.233m-65.62 13.189c1.089 2.035 4.865 5.104 6.279 5.104.427 0 .777-.666.777-1.48 0-.813-1.829-2.412-4.063-3.552-4.014-2.048-4.051-2.049-2.993-.072m22.806 3.403c-1.513.598-2.75 1.408-2.75 1.8 0 1.117 3.805-.159 5.09-1.707.635-.766.987-1.344.782-1.286-.204.059-1.609.596-3.122 1.193M88 189.724c0 2.462 7.915 3.035 8.716.631.238-.717-1.32-1.281-4.168-1.508-3.143-.25-4.548.021-4.548.877m23.872.026c-1.243 1.586-1.208 1.621.378.378.963-.755 1.75-1.543 1.75-1.75 0-.823-.821-.294-2.128 1.372m-3.852 3.726c-.789.95-.865 1.524-.201 1.524 1.208 0 2.617-1.897 1.924-2.591-.252-.251-1.027.229-1.723 1.067M86.638 194.5c.317.825 1.033 1.5 1.591 1.5.586 0 .489-.635-.229-1.5-.685-.825-1.401-1.5-1.591-1.5-.19 0-.087.675.229 1.5m21.767 2.75l-1.905 2.25 2.25-1.905c2.114-1.79 2.705-2.595 1.905-2.595-.19 0-1.202 1.012-2.25 2.25M91 196.873c0 1.054 4.967 2.493 5.785 1.676.766-.766.135-1.167-3.035-1.927-1.513-.363-2.75-.25-2.75.251m10.25-.167c-2.458.473-3.118 2.294-.832 2.294 2.169 0 4.582-1.11 4.582-2.107 0-.491-.338-.832-.75-.757-.412.075-1.763.331-3 .57" fill="#ac4745" fill-rule="evenodd"/><path fill-opacity=".351" d="M110 15.139C91.385 18.962 75.806 25.213 63.593 33.76c-7.967 5.575-20.559 18.037-26.169 25.899C24.76 77.406 17 101.662 17 123.5c0 21.5 7.506 45.396 19.76 62.907 11.831 16.908 31.975 32.698 50.469 39.562 13.83 5.132 22.239 6.531 39.271 6.531 17.477 0 24.9-1.259 40.071-6.799 26.297-9.601 52.529-35.833 62.13-62.13 2.669-7.308 5.326-16.969 6.07-22.071.924-6.337.949-29.565.038-35.5-2.196-14.305-8.709-30.81-16.953-42.96C200.418 37.341 176.198 21.738 144 15.462c-8.225-1.603-26.906-1.781-34-.323M106.454 71.5c.243 9.35.905 18.35 1.47 20 .759 2.211.933-1.472.663-14-.202-9.35-.863-18.35-1.471-20-.853-2.319-1.003.86-.662 14M192 62.02c-1.375.474-6.209 1.836-10.743 3.028-5.069 1.333-7.993 2.57-7.595 3.214.385.624.163.748-.551.307-1.463-.905-8.396 4.161-7.555 5.521.326.528.027.836-.664.685-.757-.166-3.495 4.896-6.885 12.725-3.096 7.15-6.5 14.328-7.565 15.952-1.924 2.933-1.924 2.947.058 2.186 1.098-.421 4.192-1.237 6.878-1.812 3.154-.677 4.423-1.331 3.585-1.849-.764-.472.521-.774 3.126-.734 8.57.129 18.303-6.024 23.306-14.734 3.86-6.719 9.89-22.324 9.26-23.965-.659-1.718-1.061-1.763-4.655-.524m-24 11.873c0 .491.739 1.176 1.641 1.523 1.373.527 1.435.38.378-.893-1.44-1.735-2.019-1.916-2.019-.63m-5.436 4.814c-.542 1.425-.428 1.54.56.56.684-.679.991-1.486.683-1.793-.308-.308-.867.247-1.243 1.233m-6.484 17.181c-1.793 2.518-1.867 3.044-.579 4.113.812.674 1.234 1.619.936 2.101-.297.481.157.607 1.011.28 1.983-.761 2.018-2.382.052-2.382-2.124 0-1.86-2.64.5-5 1.1-1.1 1.581-2 1.068-2-.512 0-1.857 1.299-2.988 2.888M151.5 103c-.34.55-.141 1 .441 1s1.059-.45 1.059-1-.198-1-.441-1-.719.45-1.059 1m-48.3 24.2c-2.766 2.766.128 9.655 3.511 8.358.799-.307 1.641-.558 1.871-.558.23 0 .418-.4.418-.889s-.725-.826-1.612-.75c-2.564.221-4.121-2.958-2.622-5.358 1.369-2.192.347-2.716-1.566-.803m22.062 2.329c-2.637 1.847-3.927 7.716-2.422 11.02 2.146 4.708 9.117 4.368 11.671-.57 4.205-8.132-2.21-15.38-9.249-10.45m.773 1.405c-1.563 2.922-1.25 5.561.891 7.499 2.489 2.253 5.151 1.696 6.881-1.44 2.118-3.84.171-7.993-3.747-7.993-1.932 0-3.356.684-4.025 1.934M130 132.5c0 .825.45 1.5 1 1.5s1-.675 1-1.5-.45-1.5-1-1.5-1 .675-1 1.5m23.736 14.926c.918 2.476 1.848 4.324 2.066 4.105.595-.595-1.812-7.419-2.841-8.055-.492-.304-.143 1.474.775 3.95M94 148.938c-1.925 1.125-6.076 3.4-9.225 5.056-7.535 3.961-8.784 6.492-8.741 17.706l.035 8.8 7.215 3.267c12.795 5.793 21.609 4.031 33.043-6.607 3.507-3.262 7.378-6.467 8.603-7.122 3.373-1.806 12.954-4.821 13.52-4.255.274.274-1.628 1.842-4.226 3.485-7.132 4.509-13.623 10.221-15.222 13.394-.787 1.561-2.303 4.188-3.37 5.838-1.323 2.045-.061 1.203 3.964-2.644 5.802-5.547 11.04-8.928 13.604-8.782.715.041-.5.947-2.7 2.013-3.571 1.732-3.678 1.88-1 1.389 4.87-.894 15.402-6.425 16.641-8.739.629-1.177 1.145-4.55 1.145-7.495 0-5.793-1.325-8.264-3.494-6.515-1.665 1.343-17.311 5.273-20.993 5.273-2.148 0-4.707-1.802-10.722-7.549-9.099-8.693-12.346-9.863-18.077-6.513M156.232 157c0 1.925.206 2.713.457 1.75.252-.963.252-2.537 0-3.5-.251-.963-.457-.175-.457 1.75M85 159c0 1.65.181 3 .402 3 .221 0 .873-1.35 1.448-3 .849-2.434.773-3-.402-3-.942 0-1.448 1.048-1.448 3m16.2.2c-2.075 2.075-1.302 3.202.856 1.249 1.693-1.532 2.396-1.648 3.986-.655 2.628 1.641 3.46 1.516 1.958-.294-1.495-1.802-5.137-1.963-6.8-.3m-1.2 4.3l-3.392 3.5h2.541c1.397 0 3.346-.889 4.33-1.976.983-1.087 2.178-1.736 2.655-1.441 1.297.801 1.044-1.005-.334-2.383-1.714-1.714-2.031-1.589-5.8 2.3m54.579 1.042c-1.46 5.815-14.521 15.917-23.079 17.849-1.65.373-4.305 1.195-5.901 1.827-2.581 1.023-2.691 1.232-1 1.896 6.232 2.445 18.362-1.028 23.322-6.677 3.759-4.281 6.359-9.175 5.561-10.466-.33-.534-.172-.971.351-.971.991 0 2.584-4.916 1.836-5.665-.236-.235-.726.758-1.09 2.207M77 179c0 .55 1.025 1 2.277 1 1.253 0 3.29.709 4.526 1.575 1.237.866 2.767 1.402 3.4 1.191 1.639-.547-5.507-4.766-8.071-4.766-1.173 0-2.132.45-2.132 1m2.128 6.25c2.224 4.175 6.872 6.363 6.872 3.235 0-1.385-5.433-5.472-7.285-5.481-.432-.002-.246 1.008.413 2.246M112.5 188c-1.002 1.107-1.596 2.237-1.321 2.512.275.275 1.319-.405 2.321-1.512 1.002-1.107 1.596-2.237 1.321-2.512-.275-.275-1.319.405-2.321 1.512m-11.25.179c-4.001 1.081-4.481 3.342-.5 2.359 2.779-.687 4.981-2.197 4.183-2.871-.238-.201-1.896.029-3.683.512M88 189.418c0 1.75 4.332 3.857 6.91 3.361.862-.166 1.718-1.084 1.902-2.04.258-1.339-.354-1.739-2.657-1.739-1.645 0-3.703-.273-4.573-.607-1.044-.401-1.582-.052-1.582 1.025m-2 3.805c0 1.92 2.617 4.206 3.387 2.959.311-.503-.324-1.72-1.411-2.703-1.664-1.506-1.976-1.547-1.976-.256m21.54.124c-1.097.803-1.431 1.602-.825 1.977.56.346 1.823-.261 2.806-1.348 2.037-2.25.782-2.649-1.981-.629m3.9.751c-.374.604-2.738 2.404-5.255 4-5.408 3.429-9.856 3.688-15.935.929-2.338-1.061-4.25-1.528-4.25-1.037 0 1.414 2.091 2.368 8 3.65 4.472.969 4.879 1.208 2.177 1.276-2.602.066-3.252.464-2.992 1.834.416 2.191 5.275 2.877 8.427 1.19 2.028-1.085 12.056-12.94 10.946-12.94-.242 0-.745.494-1.118 1.098m-21.036 2.057c-.823 1.332-.284 1.719 3.419 2.46 1.747.349 3.177.227 3.177-.271 0-1.396-5.88-3.348-6.596-2.189M98.71 198c-.624 2.388-.587 2.393 3.822.551 4.367-1.825 4.392-2.551.085-2.551-2.543 0-3.514.497-3.907 2" fill="#ac4745" fill-rule="evenodd"/><path fill-opacity=".387" d="M104.269 16.612C74.286 23.127 49.596 40.481 33.297 66.5 18.152 90.677 13.953 121.886 21.525 154c.827 3.507 4.8 13.71 7.171 18.415 7.814 15.505 23.299 33.094 36.857 41.864 6.127 3.964 17.13 9.609 22.947 11.775 6.702 2.494 11.088 3.69 17 4.634 1.65.264 4.461.779 6.246 1.146 3.371.692 33.241-.228 36.754-1.132 1.1-.283 3.35-.818 5-1.189 1.65-.372 4.35-1.134 6-1.695 17.7-6.016 31.238-14.376 44.09-27.228 11.462-11.463 20.136-24.777 25.464-39.09 2.47-6.637 3.544-10.543 4.809-17.5.827-4.545.827-36.455 0-41-3.862-21.233-14.152-40.469-30.273-56.59-16.15-16.149-32.87-25.104-55.812-29.89-9.079-1.894-34.616-1.84-43.509.092m1.246 11.724c-6.559 10.011-7.315 42.114-1.522 64.637 1.045 4.064 1.63 7.828 1.299 8.363-.349.566-.076.649.654.197.827-.511 1.029-1.843.591-3.904-2.309-10.88-2.85-50.732-.716-52.83 1.09-1.073 1.209-.849.683 1.285-.391 1.586.215 5.06 1.572 9 1.805 5.244 2.298 9.384 2.696 22.666.268 8.938.824 16.25 1.236 16.25 1.452 0 3.324-16.671 3.368-30 .047-14.387-1.568-23.642-5.844-33.493l-2.167-4.994-1.85 2.823m.046 39.164c.686 19.01 1.498 25.694 3.189 26.253 2.871.95.884-32.333-2.34-39.212-1.278-2.725-1.366-1.38-.849 12.959m96.314-13.042c-.251.252-7.089 1.599-15.195 2.994-24.642 4.241-27.437 6.495-34.77 28.037-2.707 7.95-4.269 10.894-7.655 14.428-2.34 2.443-4.255 4.726-4.255 5.075 0 2.065-6.236 6.23-10.105 6.749-3.376.453-3.896.75-2.362 1.349 1.685.659 1.576.78-.758.84-2.484.064-2.643-.146-1.798-2.369l.927-2.438-4.092 1.443c-2.251.795-5.545 2.342-7.32 3.439-5.682 3.512-10.796 2.063-7.242-2.052.688-.796-.437.102-2.5 1.996s-3.75 3.704-3.75 4.024c0 .319 1.737.414 3.859.212 3.353-.32 3.942-.061 4.487 1.973.345 1.288.633 3.199.64 4.247.014 1.842-.052 1.845-1.986.095-1.1-.995-2-1.467-2-1.049 0 .419 1.125 1.646 2.5 2.728 2.031 1.598 2.499 2.843 2.496 6.644-.002 2.897-.758 5.914-1.985 7.927-2.061 3.381-3.67 4.41-2.622 1.678.783-2.04-1.042-5.428-2.924-5.428-.806 0-1.465.839-1.465 1.865s-1.001 3.138-2.225 4.693c-1.926 2.449-1.979 2.734-.399 2.128 2.642-1.014 8.498 2.665 12.624 7.929 1.925 2.457 4.85 5.341 6.5 6.409 1.65 1.068 2.416 1.95 1.702 1.959-.714.009-4.587-3.358-8.606-7.483-6.93-7.112-7.538-7.5-11.752-7.5-2.444 0-4.986.542-5.648 1.204-.663.663-4.21 2.8-7.884 4.75-9.632 5.114-10.791 7.093-10.904 18.619-.057 5.787.301 9.427.925 9.427.56 0 4.329 1.636 8.375 3.635 6.383 3.154 8 3.56 12.205 3.062 7.17-.849 13.282-4.154 21.512-11.629 5.909-5.367 8.497-6.996 13.198-8.304 3.216-.895 5.987-1.488 6.157-1.317.171.17-1.819 1.558-4.422 3.083-6.549 3.838-13.144 10.13-15.54 14.826-1.253 2.457-2.284 3.508-2.731 2.785-.491-.795-1.464-.369-3.077 1.348-2.19 2.331-2.221 2.513-.434 2.534 1.497.018.882 1.017-2.768 4.5-2.58 2.462-5.268 4.477-5.972 4.477-.705 0-.273-.706.958-1.568 3.301-2.312 1.87-3.298-3.366-2.32-2.935.549-5.31.486-6.539-.172-1.956-1.046-3.889-.532-3.889 1.036 0 .471 1.238 1.309 2.75 1.862 1.513.552 2.075 1.024 1.25 1.048-.825.024-2.625-.6-4-1.386-4.157-2.376-5.837-1.733-2.694 1.032 1.543 1.357 3.441 2.468 4.218 2.468.786 0 1.18.608.887 1.371-.922 2.404 2.573 4.882 5.937 4.209 3.865-.773 5.611-2.379 12.752-11.734 7.769-10.176 11.441-13.016 20.138-15.575 7.693-2.263 15.762-7.269 15.762-9.777 0-.822.505-1.381 1.122-1.244 1.688.376 5.878-8.096 5.878-11.884 0-1.826-1.065-6.149-2.366-9.606-5.036-13.379-7.355-31.115-4.384-33.532.688-.559 5.734-2.204 11.214-3.656 19.562-5.18 29.531-11.981 37.686-25.708 4.182-7.04 9.813-21.654 9.837-25.532.025-4.139-2.204-6.782-4.112-4.874M196 59.127c-1.375.551-6.225 1.871-10.779 2.935-15.195 3.549-23.004 9.396-27.073 20.271-5.622 15.027-13.697 28.317-18.148 29.87-.825.288-1.19.857-.811 1.266.379.408 2.629-.636 5-2.322 2.858-2.031 8.187-4.111 15.809-6.169 17.279-4.665 20.844-6.636 26.757-14.798 3.667-5.063 12.487-25.473 12.079-27.953-.156-.95.069-2.289.5-2.977.92-1.466.099-1.497-3.334-.123m-11.5 4.412c-4.95 1.293-9.26 2.375-9.579 2.406-.318.03-2.69 1.454-5.271 3.163-5.364 3.553-8.24 7.994-12.624 19.497-1.7 4.458-4.449 10.247-6.109 12.865-1.661 2.619-2.884 4.887-2.718 5.042.578.54 26.328-7.147 29.432-8.787 5.858-3.094 10.288-9.982 17.326-26.942 4.528-10.911 4.271-11.089-10.457-7.244M117 94c-1.125.727-.625.969 2 .969s3.125-.242 2-.969c-.825-.533-1.725-.969-2-.969-.275 0-1.175.436-2 .969m-9 3.5c0 .825.73 1.5 1.622 1.5 1.329 0 1.398-.271.378-1.5-.685-.825-1.415-1.5-1.622-1.5-.208 0-.378.675-.378 1.5m35.1.795c-1.265 2.107-1.243 2.128.479.479.991-.95 1.587-1.942 1.324-2.205-.263-.263-1.074.514-1.803 1.726m40.772 3.455c-1.243 1.586-1.208 1.621.378.378.963-.755 1.75-1.543 1.75-1.75 0-.823-.821-.294-2.128 1.372m-82.308 1.957c-.542 1.425-.428 1.54.56.56.684-.679.991-1.486.683-1.793-.308-.308-.867.247-1.243 1.233M117.5 114c-.34.55-.141 1 .441 1s1.059-.45 1.059-1-.198-1-.441-1-.719.45-1.059 1m-3.943 1.582c-1.066.78-1.516 1.411-.998 1.403 1.382-.023 3.961-1.799 3.41-2.349-.259-.26-1.345.166-2.412.946m12.791.209c-3.235.33-4.416 2.017-5.922 8.459-.766 3.278-.155 3.405 3.585.742 1.552-1.105 4.321-2.283 6.155-2.619 3.198-.585 3.15-.512-1.166 1.797-3.302 1.765-5.128 3.661-6.858 7.121-2.684 5.369-2.361 8.581 1.223 12.165 2.223 2.223 2.232 2.314.362 3.483-3.391 2.117-1.228 2.102 2.841-.02 3.026-1.578 5.284-1.961 9.799-1.662 5.055.334 5.617.205 4.059-.935-.995-.727-2.57-1.322-3.5-1.322-1.535 0-1.565-.368-.323-3.973 1-2.903 1.093-4.698.344-6.667-.766-2.014-.699-2.928.264-3.621.935-.673.817-.776-.429-.377-2.016.646-3.381-.922-1.538-1.767.691-.317.281-.337-.91-.045-1.191.292-2.474.033-2.85-.576-.39-.631-.103-.989.666-.831.742.152 2.352-.278 3.577-.956 1.891-1.047 2.52-.94 4.167.707 2.583 2.583 3.383 1.542 1.545-2.011-2.515-4.865-8.653-7.749-15.091-7.092m-26.843 7.201c-.337.546-.251 1.564.191 2.264.608.962 1.343.721 3.018-.992l2.215-2.264h-2.406c-1.323 0-2.681.446-3.018.992m3.545 4.448c-1.634 1.969-.933 6.618 1.2 7.954 1.965 1.231 4.793-.013 5.603-2.465.391-1.182.203-1.207-1.084-.144-1.284 1.058-1.839 1.002-3.163-.322-1.896-1.896-1.912-2.022-.571-4.529 1.206-2.254-.228-2.611-1.985-.494m21.873 2.483c-5.353 5.353-3.146 14.077 3.561 14.077 6.836 0 10.133-9.474 5.061-14.545-3.197-3.198-5.057-3.097-8.622.468M107 129.059c0 .582.45.781 1 .441s1-.816 1-1.059-.45-.441-1-.441-1 .477-1 1.059m19.512 1.927c-2.155 2.382-1.304 6.496 1.738 8.405 3.653 2.293 7.556-3.135 5.389-7.496-1.546-3.114-4.76-3.523-7.127-.909m2.988.014c-.729 1.18.217 3 1.559 3 .518 0 .941-.9.941-2 0-2.109-1.455-2.691-2.5-1m-22 7c.34.55.816 1 1.059 1s.441-.45.441-1-.477-1-1.059-1-.781.45-.441 1m46.02 9.731c1.364 3.977 2.48 7.975 2.48 8.884 0 6.502-6.336 15.955-13.779 20.559-2.047 1.266-7.029 3.433-11.073 4.814-4.043 1.382-7.418 2.933-7.5 3.448-.081.515 1.394 1.336 3.278 1.825 4.006 1.038 10.895-.408 15.901-3.337 1.829-1.071 3.753-1.683 4.275-1.361.521.322.846.215.723-.239-.124-.453 1.231-3.074 3.01-5.824 7.26-11.222 8.236-26.429 2.16-33.67-1.761-2.098-1.709-1.611.525 4.901m-9.648 9.019c-1.214 1.548-1.189 1.607.22.509.876-.683 1.96-.908 2.41-.5.45.407.495.179.099-.509-.929-1.616-1.093-1.586-2.729.5m-58.498.717c-1.053 2.744.196 3.772 1.392 1.146.748-1.64.815-2.613.181-2.613-.555 0-1.263.66-1.573 1.467m16.067 2.001c-2.357 1.783-1.187 2.015 1.548.307 1.547-.967 2.219-.967 3.186 0 .674.674 1.698 1.211 2.275 1.193 1.389-.042-2.506-2.968-3.95-2.968-.615 0-1.991.661-3.059 1.468m38.372-.785c.721.289 1.584.253 1.916-.079.332-.332-.258-.568-1.312-.525-1.165.048-1.402.285-.604.604m-5.063.979c.688.278 1.813.278 2.5 0 .688-.277.125-.504-1.25-.504s-1.937.227-1.25.504m-34.25 3.869l-3 2.459 2.595.005c1.427.003 3.34-.818 4.25-1.824 3.521-3.891.695-4.361-3.845-.64m26.313-1.848c.721.289 1.584.253 1.916-.079.332-.332-.258-.568-1.312-.525-1.165.048-1.402.285-.604.604m21.382 2.817c.02 1.65.244 2.204.498 1.231.254-.973.237-2.323-.037-3-.274-.677-.481.119-.461 1.769M77 178.969c0 .532.567.751 1.26.485.692-.266 2.937.372 4.989 1.418 2.051 1.045 3.454 1.456 3.118.913-.66-1.067-6.645-3.785-8.335-3.785-.568 0-1.032.436-1.032.969m1 5.076c0 1.533 4.679 5.955 6.301 5.955.765 0 2.808.707 4.54 1.57 3.756 1.874 7.52 1.553 7.945-.678.232-1.218-.792-1.758-4.227-2.229-2.493-.342-6.329-1.756-8.526-3.142-4.294-2.711-6.033-3.136-6.033-1.476m23.074 3.832c-2.824.789-4.013 3.123-1.592 3.123 2.195 0 5.518-1.828 5.518-3.035 0-1.067-.39-1.076-3.926-.088m12.593.79c-.367.366-.667 1.131-.667 1.7 0 .626.466.567 1.183-.15.651-.651.951-1.416.667-1.7-.284-.285-.817-.217-1.183.15m3.205 2.083c-1.243 1.586-1.208 1.621.378.378.963-.755 1.75-1.543 1.75-1.75 0-.823-.821-.294-2.128 1.372M86 193.255c0 2.139 2.618 4.172 3.511 2.727.379-.613.532-1.212.339-1.331-.192-.12-1.137-.82-2.1-1.556-1.484-1.136-1.75-1.112-1.75.16m20.98.269c-2.061 2.483-.117 3.057 2.27.67 1.764-1.763 1.88-2.194.595-2.194-.88 0-2.169.686-2.865 1.524m5.892 2.226c-1.243 1.586-1.208 1.621.378.378 1.666-1.307 2.195-2.128 1.372-2.128-.207 0-.995.787-1.75 1.75m-3 4c-1.243 1.586-1.208 1.621.378.378.963-.755 1.75-1.543 1.75-1.75 0-.823-.821-.294-2.128 1.372M84 199.378c0 .207.787.995 1.75 1.75 1.586 1.243 1.621 1.208.378-.378-1.307-1.666-2.128-2.195-2.128-1.372m12.442.716c-.308.498.592.906 1.999.906 3.064 0 3.312-.57.56-1.289-1.099-.288-2.251-.115-2.559.383m8.995 5.156l-2.937 3.25 3.25-2.937c3.029-2.738 3.71-3.563 2.937-3.563-.172 0-1.635 1.463-3.25 3.25" fill="#ac4745" fill-rule="evenodd"/></svg>
