<svg xmlns="http://www.w3.org/2000/svg" width="256" height="256"><path fill-opacity=".016" d="M0 128.004v128.004l128.25-.254 128.25-.254.254-127.75L257.008 0H0v128.004m.485.496c0 70.4.119 99.053.265 63.672.146-35.38.146-92.98 0-128C.604 29.153.485 58.1.485 128.5" fill="#1976D2" fill-rule="evenodd"/><path fill-opacity=".454" d="M101 1.953C87.257 5.2 81.952 7.136 69.68 13.384 43.682 26.621 26.599 43.681 13.445 69.545 7.301 81.626 4.559 89.296 1.593 102.697c-2.417 10.921-2.201 39.105.394 51.394 4.725 22.377 13.691 40.449 28.577 57.603C55.378 240.287 89.58 256 127.004 256c11.535 0 27.207-1.836 33.996-3.982 20.012-6.327 30.428-11.439 43.834-21.512 11.361-8.536 18.675-15.921 26.959-27.218 11.586-15.799 20.897-38.374 22.804-55.288.574-5.082.894-5.955 1.469-4 .404 1.375.72-6.5.703-17.5-.018-11-.34-18.425-.716-16.5-.648 3.314-.726 3.181-1.466-2.5-2.056-15.785-10.139-36.728-19.726-51.112-8.144-12.218-23.517-27.477-36.361-36.091-12.665-8.493-28.147-14.876-44.409-18.31C141.404-.692 112.276-.711 101 1.953M104.158 75c0 1.375.227 1.938.504 1.25.278-.687.278-1.812 0-2.5-.277-.687-.504-.125-.504 1.25M.42 127.5c-.001 11 .145 15.636.325 10.303.179-5.333.18-14.333.001-20C.568 112.136.421 116.5.42 127.5m99.78 4.7c-3.296 3.296.449 10.681 4.728 9.323 2.642-.839 2.734-2.509.1-1.82-2.741.717-4.965-3.973-3.214-6.777 1.331-2.13.268-2.608-1.614-.726m25.252 3.446c-3.598 3.883-3.502 11.383.183 14.281 1.449 1.14 3.509 2.073 4.577 2.073 2.73 0 7.802-5.369 7.72-8.173l-.067-2.327-1.095 2.272c-1.268 2.63-5.359 3.975-7.675 2.522-3.975-2.494-3.852-10.649.185-12.274 1.791-.721 1.873-.905.422-.957-.989-.034-2.901 1.128-4.25 2.583m10.628.354c1.458 3.061 1.92 3.628 1.92 2.358 0-.537-.7-1.849-1.555-2.917-1.467-1.83-1.487-1.798-.365.559m-4.08 2.059c0 1.132.45 1.781 1 1.441.55-.34 1-1.266 1-2.059 0-.793-.45-1.441-1-1.441s-1 .927-1 2.059m-38.5 17.757c-1.1.23-3.125 1.208-4.5 2.174s-5.2 3.119-8.5 4.783c-9.505 4.794-12.518 9.313-12.486 18.72.022 6.677.759 7.846 6.788 10.777 3.134 1.524 7.498 3.908 9.698 5.298 3.321 2.099 4.872 2.449 9.137 2.064 6.841-.618 10.126-2.466 18.99-10.686 6.5-6.026 8.383-7.183 14.665-9.013 8.136-2.368 11.454-3.422 13.885-4.41 3.645-1.481.623 3.087-3.487 5.269-5.63 2.991-16.868 13.112-16.042 14.448.39.63.189.777-.489.358-.699-.432-1.621.392-2.348 2.096-.659 1.543-1.898 3.7-2.754 4.793-.857 1.092 1.448-.604 5.12-3.771 7.429-6.405 14.823-10.293 14.823-7.794 0 .508-1.605 1.453-3.567 2.1-1.962.648-3.39 1.354-3.174 1.571.81.809 12.39-3.775 16.233-6.425 5.614-3.873 6.716-6.418 6.085-14.06-.291-3.516-.725-6.59-.966-6.83-.241-.241-1.489.226-2.774 1.038-2.113 1.334-13.25 4.122-21.584 5.403-5.483.843-7.762-.411-15.944-8.771-7.921-8.093-11.77-10.184-16.809-9.132M79.7 166.25c-1.306.971-1.494 1.92-.84 4.25l.841 3 1.65-3.872c.907-2.13 1.649-4.042 1.649-4.25 0-.778-1.675-.336-3.3.872m17.794 3.756c-2.274 2.513-1.157 3.904 1.329 1.655 2.158-1.954 4.312-2.126 5.96-.478 1.669 1.669 2.771.189 1.237-1.659-1.786-2.152-6.377-1.892-8.526.482m-.744 4.282c-2.063 1.766-3.75 3.505-3.75 3.862 0 1.308 5.963.193 7.784-1.454 1.03-.933 2.449-1.696 3.152-1.696.754 0 1.029-.648.671-1.582-.334-.87-.607-1.77-.607-2 0-1.46-4.081.155-7.25 2.87M71 197.822c0 1.745 4.865 6.909 7.047 7.48 1.648.431 2.008.129 1.762-1.479-.317-2.076-8.809-7.86-8.809-6.001m40.556 5.734c-.944 1.439-1.516 2.818-1.271 3.062.244.244 1.216-.734 2.159-2.174.944-1.439 1.516-2.818 1.271-3.062-.244-.244-1.216.734-2.159 2.174m-12.806-.253c-3.957 1.108-5.053 2.697-1.861 2.697 1.039 0 2.952-.885 4.25-1.967 1.299-1.081 2.136-1.925 1.861-1.873-.275.051-2.187.565-4.25 1.143m-16.591 1.301c.228 1.19 1.958 2.449 4.648 3.381 3.789 1.313 4.393 1.313 5.223 0 1.493-2.361 1.202-2.692-2.943-3.355-2.151-.344-4.672-.917-5.601-1.274-1.275-.489-1.6-.183-1.327 1.248M105.5 210c-.995 1.1-1.36 2-.81 2s1.815-.9 2.81-2c.995-1.1 1.36-2 .81-2s-1.815.9-2.81 2M81 211c1.057 1.975 3 2.752 3 1.2 0-1.052-2.172-3.2-3.235-3.2-.46 0-.354.9.235 2m26 2.104c-1.925 1.662-3.426 3.332-3.335 3.709.091.378-1.209.786-2.889.908-1.679.121-3.814.908-4.744 1.75-.929.841-3.117 1.529-4.861 1.529-3.205 0-3.743.585-2.406 2.615 1.036 1.573 5.235 2.763 5.235 1.484 0-.57.681-.775 1.513-.456 1.694.65 4.743-1.419 3.96-2.687-.278-.45.021-1.143.665-1.541.774-.478.902-.288.377.56-.467.756-.37 1.128.235.905.931-.344 10.775-11.935 10.055-11.839-.168.022-1.88 1.4-3.805 3.063m-21.415-.241c-.731 1.182.41 1.988 4.448 3.146 2.215.636 2.967.519 2.967-.462 0-.723-.787-1.54-1.75-1.817a38.94 38.94 0 01-3.399-1.185c-.907-.375-1.927-.232-2.266.318m13.165-.135c-2.91.305-3.75.827-3.75 2.332 0 1.067.239 1.94.532 1.94 1.674 0 7.468-3.064 7.468-3.949 0-.578-.112-.975-.25-.883-.138.093-1.937.345-4 .56m-17.306 3.21c.965 1.067 4.026 2.426 6.801 3.021 6.268 1.344 7.511.591 1.635-.991-2.377-.64-5.223-1.795-6.323-2.566-2.906-2.035-4.153-1.718-2.113.536" fill="#1976D2" fill-rule="evenodd"/><path fill-opacity=".394" d="M112.866.467c-.257.257-2.919.71-5.916 1.007-2.998.298-6.8.971-8.45 1.497-1.65.527-4.125 1.165-5.5 1.42-7.19 1.33-22.273 8.079-34.459 15.419-12.889 7.763-30.968 25.842-38.731 38.731C12.47 70.727 5.721 85.81 4.391 93c-.255 1.375-.911 3.899-1.458 5.609C1.506 103.068 1.01 107.742.343 123c-1.295 29.645 6.129 54.983 23.313 79.565C35.208 219.09 51.716 232.963 71 242.352c10.559 5.141 21.595 9.203 27.954 10.289 1.4.24 5.79 1.093 9.754 1.897 21.883 4.438 53.777-.776 77.292-12.637 7.099-3.58 15.256-8.621 18.678-11.542a9455.11 9455.11 0 018.028-6.831c3.218-2.734 8.088-7.604 10.822-10.822a9455.11 9455.11 0 016.831-8.028c9.374-10.982 19.546-34.292 23.206-53.178.959-4.95 2.124-9.428 2.589-9.95.465-.522.839-7.497.831-15.5-.009-8.003-.364-14.002-.789-13.332-.452.71-1.327-1.791-2.1-6-.729-3.97-1.46-7.939-1.625-8.82-2.231-11.938-13.106-34.904-22.445-47.398C210.211 23.992 181.935 7.082 148 1.447c-7.878-1.309-34.075-2.039-35.134-.98M101.588 19.25c-3.569 8.139-5.015 17.871-4.941 33.25.07 14.764 1.223 24.519 4.55 38.5 1.112 4.675 2.048 9.043 2.079 9.706.032.663.459.958.949.655.832-.514.17-5.797-.967-7.717-.279-.471-.605-4.071-.723-8-.119-3.929-.574-13.245-1.011-20.702-.804-13.704-.126-27.35 1.488-29.962 1.412-2.284 2.032-.621 1.049 2.809-.689 2.4-.474 4.062.898 6.934 2.931 6.136 4.045 13.565 4.721 31.464.351 9.29.934 17.074 1.295 17.298 1.439.889 3.52-21.834 3.434-37.485-.074-13.455-.478-17.917-2.19-24.175C109.716 22.671 106.117 14 104.822 14c-.513 0-1.968 2.362-3.234 5.25m1.922 44.25c.587 21.878 1.333 28.619 3.24 29.252.959.318 1.25-2.733 1.25-13.096 0-14.781-1.299-26.59-3.567-32.41-1.33-3.416-1.411-1.984-.923 16.254M215.5 47.127c-1.65.472-8.625 1.771-15.5 2.886-16.334 2.648-22.508 4.449-28.073 8.185-6.33 4.251-8.53 7.893-13.585 22.479-4.843 13.979-6.612 17.346-11.521 21.931-1.827 1.706-4.446 4.741-5.821 6.744-3.735 5.44-5.931 6.485-17.175 8.174-14.293 2.147-14.941 2.834-14.305 15.158.348 6.729.091 10.279-.911 12.593-1.889 4.362-4.288 7.377-5.17 6.496-.398-.399-.221-1.331.395-2.073.828-.997.813-1.653-.058-2.524-1.64-1.64-2.409-1.486-4.664.934-2.581 2.771-1.765 4.545 2.455 5.337 2.727.511 4.121 1.709 6.806 5.848 4.061 6.259 9.117 11.201 12.928 12.638 2.226.84 4.999.518 13.5-1.566 5.885-1.442 11.724-3.258 12.977-4.036 1.253-.778 2.704-1.151 3.223-.83 1.639 1.013 3.213 8.76 2.582 12.707-.334 2.086-.395 3.792-.137 3.792s1.59-1.912 2.96-4.25c4.185-7.142 4.227-10.852.257-22.75-6.234-18.678-8.262-33.271-5.228-37.604.908-1.296 3.572-2.521 7.25-3.334 23.025-5.09 37.318-12.805 46.441-25.068 7.152-9.614 14.82-27.878 15.172-36.135.242-5.694-.759-6.89-4.798-5.732m-4.632 4.431c-1.448.76-7.523 2.531-13.5 3.935-20.527 4.821-26.758 9.745-33.752 26.672-6.842 16.558-11.354 24.414-16.867 29.37-2.918 2.624-4.317 4.465-3.392 4.465.865 0 3.116-1.355 5.002-3.011 2.639-2.316 6.164-3.714 15.285-6.061 29.358-7.554 33.557-11.181 44.814-38.704 3.368-8.232 4.358-11.73 3.671-12.958-.679-1.213-.479-2.021.713-2.893 2.475-1.809 1.044-2.4-1.974-.815m-13.514 5.536c-20.038 4.974-26.445 10.053-32.247 25.56-1.82 4.865-5.325 12.62-7.788 17.233-2.463 4.614-3.88 8.159-3.148 7.879.731-.28 5.97-1.707 11.642-3.171 24.431-6.306 27.604-8.476 35.561-24.324C205.593 71.87 211 58.562 211 56.581c0-2.4-2.25-2.316-13.646.513M117 93.068c-2.175.637-2.013.746 1.25.832 3.808.102 4.765-.329 2.5-1.125-.687-.242-2.375-.11-3.75.293m-11 3.928c0 1.213 2.805 2.533 3.629 1.709.298-.299-.396-1.045-1.543-1.659-1.447-.774-2.086-.789-2.086-.05m93.872.754c-1.243 1.586-1.208 1.621.378.378.963-.755 1.75-1.543 1.75-1.75 0-.823-.821-.294-2.128 1.372m-53 1c-1.243 1.586-1.208 1.621.378.378.963-.755 1.75-1.543 1.75-1.75 0-.823-.821-.294-2.128 1.372m-48.141 5.17c-.435 1.663-.305 2.054.437 1.312.582-.582.86-1.647.62-2.369-.25-.749-.703-.295-1.057 1.057M.4 127.5c.001 8.25.156 11.492.344 7.204.188-4.287.187-11.037-.002-15-.19-3.962-.343-.454-.342 7.796m124.829-8.831c-1.719.692-3.815 5.019-4.641 9.581-.767 4.237-.163 4.547 3.412 1.75 1.375-1.076 3.4-1.964 4.5-1.974 1.586-.015 1.342.383-1.174 1.917-6.201 3.781-8.57 13.834-4.921 20.879 1.361 2.628 1.469 3.625.515 4.774-2.076 2.501-.504 2.429 4.629-.213 4.296-2.212 5.872-2.487 11.914-2.084l6.963.464-2.341-1.896c-2.02-1.635-2.236-2.409-1.574-5.631 1.236-6.013.779-10.02-1.508-13.231-2.406-3.38-1.281-3.92 3.247-1.558 1.512.789 2.75 1.066 2.75.616 0-1.862-2.966-7.722-4.704-9.295-4.097-3.708-12.828-5.804-17.067-4.099M100.2 132.2c-1.474 1.474-1.554 5.27-.165 7.866 1.157 2.162 4.928 2.571 6.765.734 1.799-1.799 1.446-3.249-.415-1.705-1.383 1.148-1.878 1.015-3.449-.926-1.827-2.256-1.619-4.959.491-6.404.671-.459.492-.74-.477-.75-.852-.008-2.09.525-2.75 1.185m28.056.829c-2.718 1.093-6.247 6.608-6.252 9.771-.005 3.043 2.513 7.801 4.541 8.579 6.354 2.438 12.455-3.001 12.455-11.105 0-2.613-4.982-8.315-7.173-8.211-.73.035-2.337.47-3.571.966M105 134c0 .55.45 1 1 1s1-.45 1-1-.45-1-1-1-1 .45-1 1m22.557 2.223c-.856 1.222-1.557 3.247-1.557 4.5 0 2.787 3.304 6.277 5.943 6.277 2.453 0 5.057-3.639 5.057-7.068 0-5.343-6.508-7.9-9.443-3.709m3.443 1.218c0 2.054 2.07 3.063 3.046 1.485.452-.732.6-1.689.329-2.128-.84-1.36-3.375-.877-3.375.643m26.499 10.56c-.34.551.533 4.339 1.941 8.418 1.408 4.079 2.526 8.916 2.484 10.749-.259 11.353-12.088 23.94-26.502 28.2-3.257.963-7.483 2.439-9.39 3.279-3.239 1.428-3.339 1.604-1.5 2.665 1.082.625 4.668 1.124 7.968 1.109 11.633-.051 21.645-7.099 27.34-19.246 2.351-5.016 2.66-6.895 2.66-16.175 0-9.11-.299-11.007-2.262-14.327-1.243-2.104-2.004-4.242-1.691-4.75.314-.508.346-.923.071-.923-.275 0-.778.451-1.119 1.001m-63.627 1.749c-1.243 1.586-1.208 1.621.378.378.963-.755 1.75-1.543 1.75-1.75 0-.823-.821-.294-2.128 1.372m-3.899 6.983c-1.36.954-5.811 3.541-9.89 5.75-10.697 5.794-11.518 7.234-11.881 20.837l-.298 11.18 8.298 3.898c10.053 4.723 15.656 5.471 22.939 3.063 7.001-2.315 11.335-5.11 19.038-12.28 3.476-3.236 7.443-6.475 8.814-7.198 3.446-1.816 14.013-4.947 13.979-4.141-.016.362-2.434 2.113-5.374 3.891-8.028 4.857-15.405 11.952-18.237 17.542-3.157 6.23-10.624 14.309-15.547 16.82-5.138 2.621-10.879 2.412-16.847-.612-3.872-1.962-4.967-2.195-4.967-1.057 0 2.103 3.947 4.561 7.473 4.653 1.665.043 2.465.306 1.777.583-.687.278-1.25 1.277-1.25 2.221 0 4.74 7.061 5.619 11.967 1.491 1.717-1.444 5.98-6.282 9.473-10.75 8.778-11.227 20.423-21.72 23.95-21.58.61.025-.62.957-2.734 2.072-2.115 1.116-3.667 2.207-3.449 2.425.989.989 13.597-3.792 18.388-6.972 4.361-2.896 5.523-4.292 6.456-7.758 1.21-4.494.584-11.341-1.238-13.537-.911-1.098-1.375-1.09-2.706.044-.884.753-6.721 2.563-12.971 4.022-11.267 2.631-11.398 2.638-15.51.819-2.487-1.1-6.334-4.359-9.611-8.142-7.56-8.726-14.426-11.221-20.042-7.284m-10.306 9.934c-.367.366-.651 1.829-.632 3.25l.036 2.583L80.5 170c.786-1.375 1.445-2.838 1.465-3.25.043-.93-1.4-.982-2.298-.083m19.083 2.413c-.963.561-1.75 1.457-1.75 1.993 0 .535 1.125.236 2.5-.665 2.316-1.517 2.684-1.517 5 0 1.375.901 2.5 1.194 2.5.65 0-1.155-3.281-3.072-5.184-3.028-.724.017-2.103.489-3.066 1.05M97 174.5c-3.342 3.448-3.356 3.5-.946 3.468 2.817-.036 8.363-4.483 7.445-5.97-1.113-1.8-3.053-1.053-6.499 2.502m-24.733 18.588c2.071.488 4.898 1.629 6.281 2.535 1.383.906 2.769 1.393 3.08 1.082.975-.975-7.41-4.71-10.338-4.605-2.44.088-2.317.212.977.988M71 198.066c0 2.187 2.15 4.96 4.98 6.424 3.86 1.996 5.02 1.905 5.02-.395 0-1.196-1.648-2.871-4.428-4.5-4.935-2.892-5.572-3.067-5.572-1.529m40.171 5.252c-2.35 2.501-2.733 3.682-1.194 3.682 1.15 0 4.508-4.848 3.829-5.527-.256-.256-1.442.575-2.635 1.845m-12.872-.212c-3.716 1.075-5.066 2.662-2.953 3.473 1.699.652 7.654-2.153 7.654-3.605 0-1.128-.382-1.117-4.701.132m-16.137 1.971c.258 1.795 1.234 2.567 4.1 3.242 4.63 1.09 6.738.374 6.738-2.288 0-1.622-.654-2.034-3.25-2.045-1.787-.007-4.302-.295-5.588-.639-2.019-.541-2.292-.305-2 1.73M80 209.406c0 1.248 2.523 4.594 3.464 4.594.177 0 .568-.641.869-1.425.317-.825-.479-2.096-1.893-3.023-2.065-1.353-2.44-1.375-2.44-.146m25.75-.326c-.963.561-1.75 1.622-1.75 2.359 0 .736-.562 1.318-1.25 1.292-5.386-.2-7.554.412-8.04 2.269-.816 3.122 3.255 2.548 8.866-1.25 5.929-4.013 7.745-7.915 2.174-4.67m-20.214 2.717c-1.422 1.422-.204 3.157 2.944 4.197 3.543 1.169 5.898.639 5.288-1.191-.401-1.203-7.458-3.78-8.232-3.006m6.277 8.886c.721.289 1.584.253 1.916-.079.332-.332-.258-.568-1.312-.525-1.165.048-1.402.285-.604.604" fill="#1976D2" fill-rule="evenodd"/><path fill-opacity=".699" d="M103.271 13.217c-1.996 2.488-5.27 9.725-5.201 11.493.039.985.666.173 1.394-1.804 1.955-5.31 4.472-9.906 5.425-9.906.707 0 4.585 7.855 6.419 13 .37 1.041.54.888.555-.5.026-2.518-4.988-12.784-6.463-13.232-.605-.184-1.563.243-2.129.949m-6.192 15.366c.048 1.165.285 1.402.604.605.289-.722.253-1.585-.079-1.917-.332-.332-.568.258-.525 1.312m15.048-.083c-.043.55.399 3.025.982 5.5s1.422 7.425 1.864 11l.805 6.5-.028-6.538c-.016-3.596-.82-8.996-1.787-12-.967-3.004-1.793-5.012-1.836-4.462m-16.579 7.027c-.846 5.646-.673 29.427.258 35.473.382 2.475.694-5.512.694-17.75 0-12.237-.061-22.25-.136-22.25-.076 0-.442 2.037-.816 4.527m6.458 5.794c-.003 1.002.669 2.497 1.494 3.322 1.891 1.891 1.893 1.339.006-2.279-1.067-2.046-1.495-2.344-1.5-1.043m108.606 5.498c-.279.451.82.624 2.441.387 1.621-.238 2.947-.607 2.947-.819 0-.762-4.893-.37-5.388.432m9.741.513c.356 1.007.647 3.445.647 5.416 0 1.972.27 3.315.6 2.985 1.102-1.102.617-7.918-.647-9.083-.971-.895-1.104-.744-.6.682M197 48.972c-4.675.98-7.6 1.814-6.5 1.853 2.855.1 16.416-2.408 17.187-3.179.934-.934-1.127-.678-10.687 1.326m-18.187 3.954c-2.577 1.008-6.296 2.828-8.264 4.044-3.672 2.269-9.58 9.856-9.509 12.21.022.726.751-.03 1.619-1.68 3.721-7.071 10.236-11.889 19.765-14.618 3.342-.957 4.951-1.751 3.576-1.764-1.375-.013-4.609.8-7.187 1.808m30.687-.39c-1.8.824-2.32 1.392-1.3 1.419.935.025 2.159.833 2.72 1.795.561.962 1.033 1.214 1.05.559.016-.655-.447-1.486-1.03-1.846-.67-.414-.394-1.16.75-2.027 2.24-1.698 1.682-1.673-2.19.1m-8.687 3.147c.721.289 1.584.253 1.916-.079.332-.332-.258-.568-1.312-.525-1.165.048-1.402.285-.604.604m-93.734 1.9c.048 1.165.285 1.402.604.605.289-.722.253-1.585-.079-1.917-.332-.332-.568.258-.525 1.312m89.734-.9c.721.289 1.584.253 1.916-.079.332-.332-.258-.568-1.312-.525-1.165.048-1.402.285-.604.604m22.415 4.316c-.619 2.44-.969 4.594-.777 4.786.61.609 2.728-6.749 2.307-8.012-.222-.666-.91.786-1.53 3.226m-8.604-1.46c-.965 2.514-.681 3.163.498 1.136.584-1.004.851-2.036.593-2.293-.257-.258-.749.263-1.091 1.157m-30.183 2.016c-1.864 1.494-1.852 1.512.309.465 1.238-.6 2.25-1.3 2.25-1.555 0-.765-.519-.544-2.559 1.09M108.252 66.5c.011 2.2.216 2.982.455 1.738.239-1.244.23-3.044-.02-4s-.446.062-.435 2.262m7.058 2c.005 3.3.192 4.529.415 2.732.222-1.797.218-4.497-.01-6-.229-1.503-.411-.032-.405 3.268m-13.078-.5c0 1.925.206 2.713.457 1.75.252-.963.252-2.537 0-3.5-.251-.963-.457-.175-.457 1.75m70.173-.75L170.5 69.5l2.25-1.905c2.114-1.79 2.705-2.595 1.905-2.595-.19 0-1.202 1.013-2.25 2.25m43.455 3.425c-2.904 7.392-10.21 18.812-15.791 24.683-6.965 7.326-20.939 14.367-35.069 17.668-13.699 3.201-14.003 3.467-13.985 12.247.009 3.975.346 7.747.75 8.383.404.635.577-2.621.383-7.236-.35-8.347-.338-8.397 2.372-9.428 1.499-.569 4.132-1.223 5.852-1.452 1.721-.229 5.088-1.116 7.484-1.972 2.397-.855 4.697-1.344 5.113-1.087 1.194.738 14.898-6.297 21.864-11.222 3.483-2.463 8.237-7.065 10.565-10.228 4.97-6.751 12.904-21.625 12.377-23.205-.201-.603-1.063.679-1.915 2.849m-46.582.575c-1.499 1.938-2.442 3.75-1.952 3.75.244 0 1.181-1.125 2.082-2.5 1.686-2.573 1.592-3.476-.13-1.25m-9.76 1.457c-.4.986-1.805 4.907-3.121 8.712-1.316 3.805-3.012 7.63-3.768 8.5-.757.87-1.917 3.267-2.579 5.328-1.067 3.323-4.219 6.753-6.205 6.753-.391 0-.996-.9-1.345-2.001-.978-3.079-7.177-7.288-11.086-7.525-1.916-.116-3.738-.464-4.047-.774-.309-.309-1.081-.386-1.715-.17-.633.216-3.177-.602-5.652-1.819l-4.5-2.211v-5.663c0-3.115-.288-5.953-.641-6.308-.578-.581-2.46 14.201-2.192 17.221.061.688-.716 1.25-1.726 1.25-1.502 0-1.903-.956-2.204-5.25l-.367-5.25-.185 5.333c-.212 6.101-2.32 6.811-3.227 1.088l-.542-3.421-.591 3.5c-.325 1.925-.237 3.95.195 4.5 1.456 1.855 1.289 4.978-.483 9-1.842 4.181-3.105 5.459-5.422 5.485-.791.008-.312-.829 1.119-1.954 3.609-2.839 3.858-6.366 1.17-16.531-1.336-5.049-2.254-7.354-2.093-5.25.158 2.063-.041 3.75-.442 3.75s-.311 1.46.201 3.243c.511 1.784.93 4.709.93 6.5 0 1.792.45 3.257 1 3.257 2.411 0 .089 4.017-2.546 4.404-3.244.476-2.623 2.193 1.509 4.173 4.596 2.202 4.827 2.757 1.978 4.752-3.449 2.416-6.941 7.898-6.941 10.897 0 1.561.716 4.511 1.592 6.556 2.335 5.452 2.134 13.39-.431 16.992-2.52 3.539-7.173 7.18-12.911 10.102-2.338 1.191-4.25 2.366-4.25 2.613 0 1.741 13.67-6.724 16.715-10.351 1.218-1.451 2.715-4.101 3.327-5.888 1.244-3.631 4.197-4.385 5.878-1.5.561.963 1.033 1.213 1.05.557.034-1.369-3.959-4.432-4.966-3.809-.369.228-.728-.129-.797-.792-.07-.663-.414-2.399-.765-3.858-.468-1.946-.079-3.211 1.46-4.75 1.249-1.249 1.592-2.111.848-2.13-.702-.018-.373-.726.75-1.615 1.217-.963 1.413-1.416.5-1.158-.825.233-2.238 1.875-3.14 3.649l-1.641 3.224-1.141-3.274c-.972-2.788-.886-3.461.581-4.534 2.519-1.842 5.711-1.544 8.706.813 2.814 2.213 3.221 1.598 1.66-2.508-.757-1.99-1.669-2.565-4.066-2.565-1.7 0-3.961.466-5.025 1.035-3.246 1.737-2.292-.679 2.292-5.807 2.324-2.601 4.349-4.916 4.5-5.145.151-.229.572-.118.936.246.365.364.167 1.752-.44 3.083-1.879 4.123 1.145 3.902 11.072-.812 5.063-2.404 10.26-4.616 11.548-4.916 2.256-.525 2.278-.474.595 1.386-1.698 1.876-1.637 1.93 2.176 1.93 3.961 0 11.387-3.975 11.387-6.094 0-.563 1.993-2.836 4.428-5.053 2.435-2.216 5.216-5.677 6.179-7.691 2.169-4.537 8.403-22.485 7.963-22.926-.178-.177-.651.485-1.052 1.471M97.195 78.5c.02 1.65.244 2.204.498 1.231.254-.973.237-2.323-.037-3-.274-.677-.481.119-.461 1.769m104.5 2.013c-.914 1.918-1.456 3.487-1.205 3.487.685 0 3.72-6.123 3.263-6.58-.217-.217-1.143 1.174-2.058 3.093m-44.676 17.301c-2.587 5.059-6.422 10.67-9.183 13.436-5.305 5.316-5.603 6.224-.621 1.897 1.807-1.569 4.635-3.374 6.285-4.011 1.797-.694 2.098-.991.75-.741-2.733.507-2.774.156-.377-3.241 2.365-3.35 8.37-15.244 7.923-15.691-.184-.184-2.334 3.574-4.777 8.351m35.927-4.064L189.5 97.5l3.75-3.446c2.063-1.896 3.75-3.583 3.75-3.75 0-.764-.846-.044-4.054 3.446M115.5 93c-1.723.74-1.585.871 1 .943 1.65.047 4.125.337 5.5.645 2.413.541 2.432.506.559-1.014-2.133-1.729-4.014-1.882-7.059-.574m-9.32 4.155c.208 1.4 1.178 2.285 2.767 2.524l2.446.368-2.371-2.523c-2.892-3.079-3.25-3.125-2.842-.369M113 98c1.939 1.253 3 1.253 3 0 0-.55-1.013-.993-2.25-.985-1.819.013-1.963.201-.75.985m8.813-.317c.721.289 1.584.253 1.916-.079.332-.332-.258-.568-1.312-.525-1.165.048-1.402.285-.604.604M183 100c-.901.582-1.025.975-.309.985.655.008 1.469-.435 1.809-.985.767-1.242.421-1.242-1.5 0m-76.384 2.75c-.34.963-.91 2.403-1.267 3.2-.357.798.71.348 2.371-1 3.017-2.448 3.336-3.95.838-3.95-.729 0-1.603.787-1.942 1.75m66.884.25c-1.261.542-1.445.859-.5.859.825 0 2.4-.386 3.5-.859 1.261-.542 1.445-.859.5-.859-.825 0-2.4.386-3.5.859m-8 2l-2 .859h2c1.1 0 2.9-.386 4-.859l2-.859h-2c-1.1 0-2.9.386-4 .859m-55.625 1c-.441 3.526-.267 6.742.343 6.365.693-.428.806-7.365.12-7.365-.186 0-.394.45-.463 1m50.938.683c.721.289 1.584.253 1.916-.079.332-.332-.258-.568-1.312-.525-1.165.048-1.402.285-.604.604m-37.165 14.454c-.851 1.3-1.855 4.388-2.232 6.863l-.684 4.5 2.884-2.628c6.293-5.733 12.679-6.518 18.868-2.318l3.763 2.553-1.874-3.199c-2.99-5.107-6.639-7.227-13.262-7.706-5.357-.388-6.063-.205-7.463 1.935m7.811 7.743c-3.745 1.701-9.459 7.196-9.459 9.097 0 .453 1.53-.707 3.4-2.577 1.87-1.87 4.458-3.432 5.75-3.47 2.188-.066 2.213-.126.35-.874-1.665-.67-1.161-1.065 3-2.361 2.75-.855 4.1-1.577 3-1.603-1.1-.027-3.819.778-6.041 1.788m-27.024 2.015c.305.493-.149 1.165-1.008 1.495-1.016.389-1.45 1.561-1.244 3.354.262 2.275.797 2.749 3.067 2.717 2.381-.035 2.75.352 2.75 2.882 0 1.606-.937 4.437-2.082 6.289-1.144 1.852-1.813 3.368-1.485 3.368.328 0 1.488-1.463 2.578-3.25 2.674-4.385 2.767-13.736.16-16.095-1.955-1.769-3.651-2.24-2.736-.76m.204 1.799c-1.126 1.126-.685 2.306.861 2.306.825 0 1.5-.423 1.5-.941 0-1.261-1.562-2.164-2.361-1.365M137 135c.589 1.1 1.295 2 1.57 2 .275 0 .019-.9-.57-2s-1.295-2-1.57-2c-.275 0-.019.9.57 2m-8.25.08c-1.174.684-1.75 2.253-1.75 4.77 0 4.448 1.418 6.15 5.122 6.15 2.231 0 2.934-.64 3.891-3.538 1.977-5.991-2.259-10.296-7.263-7.382m2.848.656c-.329.328-.598 1.455-.598 2.504 0 2.35 3.326 2.02 3.788-.376.314-1.63-2.087-3.232-3.19-2.128M152 137.559c0 .857.457 1.276 1.016.931.559-.346.758-1.047.441-1.559-.857-1.387-1.457-1.129-1.457.628M139.232 141c0 1.925.206 2.713.457 1.75.252-.963.252-2.537 0-3.5-.251-.963-.457-.175-.457 1.75m-18 2c0 1.925.206 2.713.457 1.75.252-.963.252-2.537 0-3.5-.251-.963-.457-.175-.457 1.75m32.337 0c.368 1.925 1.965 7.074 3.55 11.441 4.877 13.443 3.601 20.603-5.246 29.451-4.861 4.861-12.579 9.045-21.346 11.572-3.286.947-7.695 3.085-9.798 4.751-3.888 3.079-16.477 18.803-15.024 18.764.437-.012 2.136-1.925 3.774-4.25 1.638-2.326 4.676-6.079 6.75-8.34 3.113-3.395 4.249-4.021 6.521-3.589 2.515.478 2.628.374 1.314-1.215-1.745-2.113-.714-3.002 5.436-4.689 9.215-2.526 16.866-6.377 22.007-11.076 6.329-5.785 9.526-11.834 9.655-18.269.088-4.372-3.69-18.13-6.878-25.051l-1.383-3 .668 3.5M122 147.678c0 .557 1.013 1.869 2.25 2.917l2.25 1.905-1.989-2.5c-1.094-1.375-2.107-2.687-2.25-2.917-.144-.229-.261.039-.261.595M135.5 150c-.995 1.1-1.398 2-.896 2 .503 0 1.477-.9 2.164-2s1.09-2 .895-2c-.194 0-1.168.9-2.163 2m25.743 4.026c5.768 11.658 1.778 30.005-8.831 40.615-2.448 2.447-3.654 3.985-2.681 3.418 5.803-3.385 11.438-10.933 12.756-17.086.409-1.91 1.254-4.105 1.878-4.877 2.037-2.52 1.354-16.027-1.079-21.346-1.196-2.613-2.592-4.75-3.104-4.75s-.035 1.812 1.061 4.026m-23.493-2.364c.688.278 1.813.278 2.5 0 .688-.277.125-.504-1.25-.504s-1.937.227-1.25.504m-10.157 1.489c.289.467.134.849-.343.849-.477 0-1.741.695-2.809 1.545-1.325 1.054-.672.94 2.059-.361 2.2-1.049 4.675-2.144 5.5-2.435.825-.29.053-.51-1.716-.487-1.768.022-2.979.422-2.691.889M71.898 165.29c-1.869 1.259-3.417 2.722-3.441 3.25-.023.528-.617 2.638-1.32 4.689-1.857 5.418-1.077 20.974 1.164 23.215.934.934 1.699 2.295 1.699 3.024 0 1.452 6.485 7.532 8.035 7.532.531 0 1.017 1.012 1.081 2.25.087 1.693.229 1.817.573.5.5-1.914 1.853-2.3 2.784-.794.325.526 1.257.701 2.07.389.998-.383 1.299-.097.925.877-.659 1.718.562 1.947 9.918 1.861 6.654-.061 9.786-1.168 9.332-3.296-.252-1.182 3.192-1.961 4.66-1.054.545.337-1.004 2.393-3.443 4.569-2.441 2.177-3.086 3.042-1.435 1.924 1.65-1.117 4.091-3.199 5.424-4.628 1.989-2.131 2.124-2.598.75-2.598-2.14 0-2.073-.943.27-3.75 2.695-3.231 4.735-2.935 2.567.373-.945 1.443-1.213 2.311-.596 1.929.618-.381 2.193-2.799 3.5-5.373 2.829-5.569 9.103-12.071 16.35-16.943 2.896-1.946 5.059-3.746 4.806-3.998-.252-.253-2.967.329-6.032 1.293-4.303 1.354-7.38 3.418-13.509 9.061-7.854 7.233-10.958 9.311-17.936 12.012l-3.594 1.39 3.25-.576c3.123-.554 4.472.709 2.234 2.092-.559.346-.777 1.016-.484 1.49.293.474.006 1.187-.638 1.585-.644.398-.907.296-.583-.227.335-.542-1.102-.931-3.343-.904-2.252.026-3.931.534-3.933 1.189-.002.629-.665 1.397-1.475 1.708-1.548.594-7.359-1.016-8.978-2.487-.523-.475-1.95-.864-3.173-.864-4.1 0-11.899-8.815-8.033-9.079.636-.043.031-.494-1.344-1.001-2.369-.874-2.494-1.302-2.377-8.171.288-17.005-.023-15.708 4.895-20.42 4.949-4.743 4.684-5.614-.62-2.039m8.245 1.6c-.834.529-.971 1.098-.355 1.479.552.341 1.26-.053 1.576-.875.662-1.727.6-1.757-1.221-.604m17.729 3.86c-1.243 1.586-1.208 1.621.378.378.963-.755 1.75-1.543 1.75-1.75 0-.823-.821-.294-2.128 1.372m-.289 3.849c-3.141 2.728-3.526 3.401-1.944 3.401 1.085 0 3.416-1.065 5.18-2.366 2.465-1.819 2.915-2.607 1.944-3.401-.923-.755-2.318-.118-5.18 2.366M70.75 192.662c.688.278 1.813.278 2.5 0 .688-.277.125-.504-1.25-.504s-1.937.227-1.25.504m4.333.641c.23.166 1.767 1.093 3.417 2.059l3 1.757-2.361-2.06c-1.298-1.132-2.836-2.059-3.416-2.059-.581 0-.869.136-.64.303M145 200c-.901.582-1.025.975-.309.985.655.008 1.469-.435 1.809-.985.767-1.242.421-1.242-1.5 0m-66 .409c0 .19.675.906 1.5 1.591.865.718 1.5.815 1.5.229 0-.558-.675-1.274-1.5-1.591-.825-.316-1.5-.419-1.5-.229M140.5 202c-.34.55-.168 1 .382 1s1.278-.45 1.618-1c.34-.55.168-1-.382-1s-1.278.45-1.618 1m-13.682 1.218c.533.533 1.805.793 2.826.576 1.375-.291 1.123-.543-.97-.969-1.825-.373-2.482-.233-1.856.393M135 203c-2.369.759-2.329.806.75.9 1.787.055 3.25-.35 3.25-.9 0-1.13-.471-1.13-4 0m-47.25.662c.688.278 1.813.278 2.5 0 .688-.277.125-.504-1.25-.504s-1.937.227-1.25.504m5.063.021c.721.289 1.584.253 1.916-.079.332-.332-.258-.568-1.312-.525-1.165.048-1.402.285-.604.604m-14.196 9.873c-.653 1.7 3.434 6.43 5.588 6.466.712.012 1.97 1.451 2.795 3.198.825 1.747 2.119 3.369 2.875 3.603.756.235.384-.564-.827-1.775-1.212-1.212-1.966-2.82-1.676-3.574.315-.821-.357-1.639-1.673-2.038-3.726-1.129-6.849-4.551-5.564-6.099.7-.843.735-1.337.094-1.337-.558 0-1.284.7-1.612 1.556m4.948.339c-.305.493.096 1.145.89 1.449.963.37 1.258.072.887-.895-.645-1.68-1.011-1.794-1.777-.554m8.185 3.767c.688.278 1.813.278 2.5 0 .688-.277.125-.504-1.25-.504s-1.937.227-1.25.504m9.347 5.329c-1.872 1.601-4.347 3.096-5.5 3.323-1.975.39-1.966.422.168.55 1.336.08 3.796-1.288 6-3.337 4.528-4.21 4.064-4.582-.668-.536" fill="#1976D2" fill-rule="evenodd"/></svg>